{
	"patcher" : 	{
		"fileversion" : 1,
		"appversion" : 		{
			"major" : 8,
			"minor" : 3,
			"revision" : 1,
			"architecture" : "x64",
			"modernui" : 1
		}
,
		"classnamespace" : "box",
		"rect" : [ 1100.0, 411.0, 1079.0, 597.0 ],
		"bglocked" : 0,
		"openinpresentation" : 0,
		"default_fontsize" : 12.0,
		"default_fontface" : 0,
		"default_fontname" : "Lato",
		"gridonopen" : 1,
		"gridsize" : [ 15.0, 15.0 ],
		"gridsnaponopen" : 1,
		"objectsnaponopen" : 1,
		"statusbarvisible" : 2,
		"toolbarvisible" : 1,
		"lefttoolbarpinned" : 0,
		"toptoolbarpinned" : 0,
		"righttoolbarpinned" : 0,
		"bottomtoolbarpinned" : 0,
		"toolbars_unpinned_last_save" : 0,
		"tallnewobj" : 0,
		"boxanimatetime" : 200,
		"enablehscroll" : 1,
		"enablevscroll" : 1,
		"devicewidth" : 0.0,
		"description" : "",
		"digest" : "",
		"tags" : "",
		"style" : "Minimal-1",
		"subpatcher_template" : "minimal",
		"assistshowspatchername" : 0,
		"boxes" : [ 			{
				"box" : 				{
					"id" : "obj-93",
					"maxclass" : "slider",
					"numinlets" : 1,
					"numoutlets" : 1,
					"outlettype" : [ "" ],
					"parameter_enable" : 0,
					"patching_rect" : [ 841.0, 231.5, 18.0, 78.0 ]
				}

			}
, 			{
				"box" : 				{
					"id" : "obj-92",
					"maxclass" : "textbutton",
					"mode" : 1,
					"numinlets" : 1,
					"numoutlets" : 3,
					"outlettype" : [ "", "", "int" ],
					"parameter_enable" : 0,
					"patching_rect" : [ 613.5, 296.0, 100.0, 20.0 ],
					"text" : "Note off",
					"texton" : "Note on"
				}

			}
, 			{
				"box" : 				{
					"id" : "obj-89",
					"maxclass" : "newobj",
					"numinlets" : 2,
					"numoutlets" : 1,
					"outlettype" : [ "int" ],
					"patching_rect" : [ 613.5, 268.0, 29.5, 23.0 ],
					"text" : "!= 0"
				}

			}
, 			{
				"box" : 				{
					"bgcolor" : [ 0.0, 1.0, 0.407843137254902, 1.0 ],
					"fontface" : 1,
					"fontsize" : 30.0,
					"id" : "obj-78",
					"maxclass" : "comment",
					"numinlets" : 1,
					"numoutlets" : 0,
					"patching_rect" : [ 12.0, 228.0, 37.0, 42.0 ],
					"text" : "3",
					"textjustification" : 2
				}

			}
, 			{
				"box" : 				{
					"id" : "obj-77",
					"linecount" : 5,
					"maxclass" : "comment",
					"numinlets" : 1,
					"numoutlets" : 0,
					"patching_rect" : [ 59.0, 228.0, 273.0, 78.0 ],
					"text" : "MIDI velocity represents how loud a sound will be, you can think of it as having 128 different loudness steps. A velocity over 0 indicates a \"note on\" message as where a velocity of 0 indicates a \"note off\""
				}

			}
, 			{
				"box" : 				{
					"bgcolor" : [ 0.0, 1.0, 0.407843137254902, 1.0 ],
					"fontface" : 1,
					"fontsize" : 30.0,
					"id" : "obj-73",
					"maxclass" : "comment",
					"numinlets" : 1,
					"numoutlets" : 0,
					"patching_rect" : [ 12.0, 136.0, 37.0, 42.0 ],
					"text" : "2",
					"textjustification" : 2
				}

			}
, 			{
				"box" : 				{
					"id" : "obj-74",
					"linecount" : 4,
					"maxclass" : "comment",
					"numinlets" : 1,
					"numoutlets" : 0,
					"patching_rect" : [ 59.0, 139.5, 277.0, 64.0 ],
					"presentation_linecount" : 4,
					"text" : "MIDI pitch and velocity are values from 0 to 127, 0 being the lowest value and 127 being the highest. MIDI pitches increase be semitones, so each integer number is a unique note on the keyboard. "
				}

			}
, 			{
				"box" : 				{
					"id" : "obj-72",
					"maxclass" : "comment",
					"numinlets" : 1,
					"numoutlets" : 0,
					"patching_rect" : [ 841.0, 171.5, 189.0, 21.0 ],
					"presentation_linecount" : 2,
					"text" : "Max Bricks note ID (not MIDI)"
				}

			}
, 			{
				"box" : 				{
					"id" : "obj-71",
					"maxclass" : "number",
					"numinlets" : 1,
					"numoutlets" : 2,
					"outlettype" : [ "", "bang" ],
					"parameter_enable" : 0,
					"patching_rect" : [ 721.0, 169.5, 118.0, 23.0 ]
				}

			}
, 			{
				"box" : 				{
					"id" : "obj-69",
					"maxclass" : "comment",
					"numinlets" : 1,
					"numoutlets" : 0,
					"patching_rect" : [ 669.5, 237.5, 150.0, 21.0 ],
					"text" : "Midi velocity (0-127)"
				}

			}
, 			{
				"box" : 				{
					"id" : "obj-68",
					"maxclass" : "comment",
					"numinlets" : 1,
					"numoutlets" : 0,
					"patching_rect" : [ 637.0, 207.5, 150.0, 21.0 ],
					"text" : "Midi pitch (0-127)"
				}

			}
, 			{
				"box" : 				{
					"id" : "obj-66",
					"maxclass" : "number",
					"numinlets" : 1,
					"numoutlets" : 2,
					"outlettype" : [ "", "bang" ],
					"parameter_enable" : 0,
					"patching_rect" : [ 613.5, 237.5, 50.0, 23.0 ]
				}

			}
, 			{
				"box" : 				{
					"id" : "obj-64",
					"maxclass" : "number",
					"numinlets" : 1,
					"numoutlets" : 2,
					"outlettype" : [ "", "bang" ],
					"parameter_enable" : 0,
					"patching_rect" : [ 585.0, 207.5, 50.0, 23.0 ]
				}

			}
, 			{
				"box" : 				{
					"id" : "obj-62",
					"maxclass" : "newobj",
					"numinlets" : 1,
					"numoutlets" : 3,
					"outlettype" : [ "int", "int", "int" ],
					"patching_rect" : [ 585.0, 169.5, 76.0, 23.0 ],
					"text" : "unpack 0 0 0"
				}

			}
, 			{
				"box" : 				{
					"bgcolor" : [ 0.0, 1.0, 0.407843137254902, 1.0 ],
					"fontface" : 1,
					"fontsize" : 30.0,
					"id" : "obj-49",
					"maxclass" : "comment",
					"numinlets" : 1,
					"numoutlets" : 0,
					"patching_rect" : [ 12.0, 63.0, 37.0, 42.0 ],
					"text" : "1",
					"textjustification" : 2
				}

			}
, 			{
				"box" : 				{
					"fontsize" : 20.0,
					"id" : "obj-47",
					"maxclass" : "comment",
					"numinlets" : 1,
					"numoutlets" : 0,
					"patching_rect" : [ 12.0, 13.0, 323.0, 30.0 ],
					"text" : "MIDI Notes"
				}

			}
, 			{
				"box" : 				{
					"id" : "obj-45",
					"linecount" : 2,
					"maxclass" : "comment",
					"numinlets" : 1,
					"numoutlets" : 0,
					"patching_rect" : [ 59.0, 66.5, 276.0, 35.0 ],
					"text" : "MIDI notes are made up of two components: pitch and velocity."
				}

			}
, 			{
				"box" : 				{
					"args" : [ 1 ],
					"bgmode" : 0,
					"border" : 0,
					"clickthrough" : 0,
					"enablehscroll" : 0,
					"enablevscroll" : 0,
					"id" : "obj-3",
					"lockeddragscroll" : 0,
					"lockedsize" : 0,
					"maxclass" : "bpatcher",
					"name" : "mb.notein.maxpat",
					"numinlets" : 0,
					"numoutlets" : 1,
					"offset" : [ 0.0, 0.0 ],
					"outlettype" : [ "" ],
					"patching_rect" : [ 482.0, 31.0, 290.0, 120.0 ],
					"varname" : "mb.notein[1]",
					"viewvisibility" : 1
				}

			}
, 			{
				"box" : 				{
					"args" : [ 1 ],
					"bgmode" : 0,
					"border" : 0,
					"clickthrough" : 0,
					"enablehscroll" : 0,
					"enablevscroll" : 0,
					"id" : "obj-82",
					"lockeddragscroll" : 0,
					"lockedsize" : 0,
					"maxclass" : "bpatcher",
					"name" : "mb.sinesynth~.maxpat",
					"numinlets" : 2,
					"numoutlets" : 1,
					"offset" : [ 0.0, 0.0 ],
					"outlettype" : [ "signal" ],
					"patching_rect" : [ 482.0, 324.0, 290.0, 120.0 ],
					"varname" : "mb.sinesynth~[1]",
					"viewvisibility" : 1
				}

			}
, 			{
				"box" : 				{
					"args" : [ 1 ],
					"bgmode" : 0,
					"border" : 0,
					"clickthrough" : 0,
					"enablehscroll" : 0,
					"enablevscroll" : 0,
					"id" : "obj-85",
					"lockeddragscroll" : 0,
					"lockedsize" : 0,
					"maxclass" : "bpatcher",
					"name" : "mb.pan~.maxpat",
					"numinlets" : 1,
					"numoutlets" : 2,
					"offset" : [ 0.0, 0.0 ],
					"outlettype" : [ "signal", "signal" ],
					"patching_rect" : [ 482.0, 451.0, 190.0, 40.0 ],
					"varname" : "mb.pan~[1]",
					"viewvisibility" : 1
				}

			}
, 			{
				"box" : 				{
					"args" : [ 1 ],
					"bgmode" : 0,
					"border" : 0,
					"clickthrough" : 0,
					"enablehscroll" : 0,
					"enablevscroll" : 0,
					"id" : "obj-88",
					"lockeddragscroll" : 0,
					"lockedsize" : 0,
					"maxclass" : "bpatcher",
					"name" : "mb.audioOut.maxpat",
					"numinlets" : 2,
					"numoutlets" : 0,
					"offset" : [ 0.0, 0.0 ],
					"patching_rect" : [ 482.0, 499.0, 190.0, 90.0 ],
					"varname" : "mb.audioOut[1]",
					"viewvisibility" : 1
				}

			}
 ],
		"lines" : [ 			{
				"patchline" : 				{
					"destination" : [ "obj-62", 0 ],
					"order" : 0,
					"source" : [ "obj-3", 0 ]
				}

			}
, 			{
				"patchline" : 				{
					"destination" : [ "obj-82", 0 ],
					"order" : 1,
					"source" : [ "obj-3", 0 ]
				}

			}
, 			{
				"patchline" : 				{
					"destination" : [ "obj-64", 0 ],
					"source" : [ "obj-62", 0 ]
				}

			}
, 			{
				"patchline" : 				{
					"destination" : [ "obj-66", 0 ],
					"source" : [ "obj-62", 1 ]
				}

			}
, 			{
				"patchline" : 				{
					"destination" : [ "obj-71", 0 ],
					"source" : [ "obj-62", 2 ]
				}

			}
, 			{
				"patchline" : 				{
					"destination" : [ "obj-89", 0 ],
					"order" : 1,
					"source" : [ "obj-66", 0 ]
				}

			}
, 			{
				"patchline" : 				{
					"destination" : [ "obj-93", 0 ],
					"midpoints" : [ 623.0, 271.5, 830.0, 271.5, 830.0, 220.5, 850.5, 220.5 ],
					"order" : 0,
					"source" : [ "obj-66", 0 ]
				}

			}
, 			{
				"patchline" : 				{
					"destination" : [ "obj-85", 0 ],
					"source" : [ "obj-82", 0 ]
				}

			}
, 			{
				"patchline" : 				{
					"destination" : [ "obj-88", 1 ],
					"source" : [ "obj-85", 1 ]
				}

			}
, 			{
				"patchline" : 				{
					"destination" : [ "obj-88", 0 ],
					"source" : [ "obj-85", 0 ]
				}

			}
, 			{
				"patchline" : 				{
					"destination" : [ "obj-92", 0 ],
					"source" : [ "obj-89", 0 ]
				}

			}
 ],
		"parameters" : 		{
			"obj-82::obj-19" : [ "live.text[3]", "live.text[1]", 0 ],
			"obj-82::obj-4" : [ "wavefold[1]", "wavefold", 0 ],
			"obj-82::obj-44" : [ "live.numbox[1]", "live.numbox", 0 ],
			"obj-82::obj-76" : [ "live.gain~[1]", "live.gain~", 0 ],
			"obj-82::obj-93" : [ "live.text[2]", "live.text", 0 ],
			"obj-85::obj-2" : [ "pan[1]", "pan", 0 ],
			"obj-85::obj-27" : [ "gain[3]", "gain", 0 ],
			"obj-88::obj-25" : [ "dspState[3]", "dspState", 0 ],
			"obj-88::obj-3" : [ "live.gain~[6]", "live.gain~", 0 ],
			"obj-88::obj-9" : [ "live.numbox[3]", "live.numbox", 0 ],
			"parameterbanks" : 			{
				"0" : 				{
					"index" : 0,
					"name" : "",
					"parameters" : [ "-", "-", "-", "-", "-", "-", "-", "-" ]
				}

			}
,
			"parameter_overrides" : 			{
				"obj-82::obj-19" : 				{
					"parameter_longname" : "live.text[3]"
				}
,
				"obj-82::obj-4" : 				{
					"parameter_longname" : "wavefold[1]"
				}
,
				"obj-82::obj-44" : 				{
					"parameter_longname" : "live.numbox[1]"
				}
,
				"obj-82::obj-76" : 				{
					"parameter_longname" : "live.gain~[1]"
				}
,
				"obj-82::obj-93" : 				{
					"parameter_longname" : "live.text[2]"
				}
,
				"obj-85::obj-2" : 				{
					"parameter_longname" : "pan[1]"
				}
,
				"obj-85::obj-27" : 				{
					"parameter_longname" : "gain[3]"
				}
,
				"obj-88::obj-25" : 				{
					"parameter_longname" : "dspState[3]"
				}
,
				"obj-88::obj-3" : 				{
					"parameter_longname" : "live.gain~[6]"
				}
,
				"obj-88::obj-9" : 				{
					"parameter_longname" : "live.numbox[3]"
				}

			}
,
			"inherited_shortname" : 1
		}
,
		"dependency_cache" : [ 			{
				"name" : "_mb.inputConnected.maxpat",
				"bootpath" : "~/Documents/Max 8/Packages/Max Bricks/patchers/utilities",
				"patcherrelativepath" : "../../../patchers/utilities",
				"type" : "JSON",
				"implicit" : 1
			}
, 			{
				"name" : "_mb.lfoInput.maxpat",
				"bootpath" : "~/Documents/Max 8/Packages/Max Bricks/patchers/utilities",
				"patcherrelativepath" : "../../../patchers/utilities",
				"type" : "JSON",
				"implicit" : 1
			}
, 			{
				"name" : "_mb.notetagger.maxpat",
				"bootpath" : "~/Documents/Max 8/Packages/Max Bricks/patchers/utilities",
				"patcherrelativepath" : "../../../patchers/utilities",
				"type" : "JSON",
				"implicit" : 1
			}
, 			{
				"name" : "_mb.poly.sinesynth.maxpat",
				"bootpath" : "~/Documents/Max 8/Packages/Max Bricks/patchers/poly",
				"patcherrelativepath" : "../../../patchers/poly",
				"type" : "JSON",
				"implicit" : 1
			}
, 			{
				"name" : "mb.audioOut.maxpat",
				"bootpath" : "~/Documents/Max 8/Packages/Max Bricks/patchers/bpatchers/generators and io",
				"patcherrelativepath" : "../../../patchers/bpatchers/generators and io",
				"type" : "JSON",
				"implicit" : 1
			}
, 			{
				"name" : "mb.helpers.js",
				"bootpath" : "~/Documents/Max 8/Packages/Max Bricks/javascript",
				"patcherrelativepath" : "../../../javascript",
				"type" : "TEXT",
				"implicit" : 1
			}
, 			{
				"name" : "mb.infoIcon.svg",
				"bootpath" : "~/Documents/Max 8/Packages/Max Bricks/media",
				"patcherrelativepath" : "../../../media",
				"type" : "svg",
				"implicit" : 1
			}
, 			{
				"name" : "mb.notein.maxpat",
				"bootpath" : "~/Documents/Max 8/Packages/Max Bricks/patchers/bpatchers/generators and io",
				"patcherrelativepath" : "../../../patchers/bpatchers/generators and io",
				"type" : "JSON",
				"implicit" : 1
			}
, 			{
				"name" : "mb.pan~.maxpat",
				"bootpath" : "~/Documents/Max 8/Packages/Max Bricks/patchers/bpatchers/audio effects",
				"patcherrelativepath" : "../../../patchers/bpatchers/audio effects",
				"type" : "JSON",
				"implicit" : 1
			}
, 			{
				"name" : "mb.sinesynth~.maxpat",
				"bootpath" : "~/Documents/Max 8/Packages/Max Bricks/patchers/bpatchers/synths",
				"patcherrelativepath" : "../../../patchers/bpatchers/synths",
				"type" : "JSON",
				"implicit" : 1
			}
, 			{
				"name" : "pan2S.maxpat",
				"bootpath" : "~/AppData/Roaming/Cycling '74/Max 8/examples/spatialization/panning/lib",
				"patcherrelativepath" : "../../../../../../../AppData/Roaming/Cycling '74/Max 8/examples/spatialization/panning/lib",
				"type" : "JSON",
				"implicit" : 1
			}
 ],
		"autosave" : 0,
		"styles" : [ 			{
				"name" : "Minimal",
				"default" : 				{
					"accentcolor" : [ 0.0, 0.0, 0.0, 1.0 ],
					"bgcolor" : [ 0.999999, 0.999974, 0.999991, 1.0 ],
					"bgfillcolor" : 					{
						"angle" : 270.0,
						"autogradient" : 0.0,
						"color" : [ 0.65098, 0.666667, 0.662745, 1.0 ],
						"color1" : [ 0.65098, 0.666667, 0.662745, 1.0 ],
						"color2" : [ 0.290196, 0.309804, 0.301961, 1.0 ],
						"proportion" : 0.39,
						"type" : "color"
					}
,
					"color" : [ 0.0, 0.0, 0.0, 1.0 ],
					"editing_bgcolor" : [ 0.956862745098039, 0.956862745098039, 0.956862745098039, 1.0 ],
					"elementcolor" : [ 0.647058823529412, 0.647058823529412, 0.647058823529412, 1.0 ],
					"fontface" : [ 0 ],
					"fontname" : [ "Futura Medium" ],
					"fontsize" : [ 10.0 ],
					"selectioncolor" : [ 0.0, 0.0, 0.0, 1.0 ],
					"textcolor_inverse" : [ 0.0, 0.0, 0.0, 1.0 ]
				}
,
				"parentstyle" : "",
				"multi" : 0
			}
, 			{
				"name" : "Minimal-1",
				"default" : 				{
					"accentcolor" : [ 0.0, 0.0, 0.0, 1.0 ],
					"bgcolor" : [ 0.999999, 0.999974, 0.999991, 1.0 ],
					"bgfillcolor" : 					{
						"angle" : 270.0,
						"autogradient" : 0.0,
						"color" : [ 0.65098, 0.666667, 0.662745, 1.0 ],
						"color1" : [ 0.65098, 0.666667, 0.662745, 1.0 ],
						"color2" : [ 0.290196, 0.309804, 0.301961, 1.0 ],
						"proportion" : 0.39,
						"type" : "color"
					}
,
					"color" : [ 0.0, 0.0, 0.0, 1.0 ],
					"editing_bgcolor" : [ 0.956862745098039, 0.956862745098039, 0.956862745098039, 1.0 ],
					"elementcolor" : [ 0.741176470588235, 0.741176470588235, 0.741176470588235, 1.0 ],
					"fontface" : [ 0 ],
					"fontname" : [ "Lato" ],
					"fontsize" : [ 12.0 ],
					"selectioncolor" : [ 0.0, 0.0, 0.0, 1.0 ],
					"textcolor_inverse" : [ 0.0, 0.0, 0.0, 1.0 ]
				}
,
				"parentstyle" : "",
				"multi" : 0
			}
 ]
	}

}
