{
	"patcher" : 	{
		"fileversion" : 1,
		"appversion" : 		{
			"major" : 8,
			"minor" : 3,
			"revision" : 1,
			"architecture" : "x64",
			"modernui" : 1
		}
,
		"classnamespace" : "box",
		"rect" : [ 707.0, 249.0, 1502.0, 1077.0 ],
		"bglocked" : 0,
		"openinpresentation" : 1,
		"default_fontsize" : 12.0,
		"default_fontface" : 0,
		"default_fontname" : "Lato",
		"gridonopen" : 1,
		"gridsize" : [ 15.0, 15.0 ],
		"gridsnaponopen" : 1,
		"objectsnaponopen" : 1,
		"statusbarvisible" : 2,
		"toolbarvisible" : 1,
		"lefttoolbarpinned" : 0,
		"toptoolbarpinned" : 0,
		"righttoolbarpinned" : 0,
		"bottomtoolbarpinned" : 0,
		"toolbars_unpinned_last_save" : 0,
		"tallnewobj" : 0,
		"boxanimatetime" : 200,
		"enablehscroll" : 1,
		"enablevscroll" : 1,
		"devicewidth" : 0.0,
		"description" : "",
		"digest" : "",
		"tags" : "",
		"style" : "Minimal-1",
		"subpatcher_template" : "minimal",
		"assistshowspatchername" : 0,
		"boxes" : [ 			{
				"box" : 				{
					"id" : "obj-167",
					"maxclass" : "newobj",
					"numinlets" : 2,
					"numoutlets" : 2,
					"outlettype" : [ "", "" ],
					"patching_rect" : [ 1638.400022804737091, 851.0, 57.0, 23.0 ],
					"text" : "zl.change"
				}

			}
, 			{
				"box" : 				{
					"bgcolor" : [ 1.0, 1.0, 1.0, 0.0 ],
					"id" : "obj-166",
					"ignoreclick" : 1,
					"maxclass" : "multislider",
					"numinlets" : 1,
					"numoutlets" : 2,
					"outlettype" : [ "", "" ],
					"parameter_enable" : 0,
					"patching_rect" : [ 1638.400022804737091, 931.0, 464.0, 128.0 ],
					"presentation" : 1,
					"presentation_rect" : [ 246.0, 82.0, 159.0, 50.0 ],
					"setstyle" : 1,
					"signed" : 1,
					"size" : 256,
					"slidercolor" : [ 0.0, 0.031372549019608, 0.647058823529412, 1.0 ]
				}

			}
, 			{
				"box" : 				{
					"id" : "obj-162",
					"maxclass" : "newobj",
					"numinlets" : 1,
					"numoutlets" : 2,
					"outlettype" : [ "", "" ],
					"patching_rect" : [ 1640.0, 816.0, 42.0, 23.0 ],
					"text" : "jit.spill"
				}

			}
, 			{
				"box" : 				{
					"id" : "obj-159",
					"maxclass" : "newobj",
					"numinlets" : 2,
					"numoutlets" : 1,
					"outlettype" : [ "bang" ],
					"patching_rect" : [ 1390.0, 681.0, 118.0, 23.0 ],
					"text" : "qmetro 33 @active 1"
				}

			}
, 			{
				"box" : 				{
					"id" : "obj-158",
					"maxclass" : "newobj",
					"numinlets" : 1,
					"numoutlets" : 2,
					"outlettype" : [ "jit_matrix", "" ],
					"patching_rect" : [ 1461.5, 723.0, 100.0, 23.0 ],
					"text" : "jit.matrix @thru 0"
				}

			}
, 			{
				"box" : 				{
					"id" : "obj-157",
					"maxclass" : "newobj",
					"numinlets" : 1,
					"numoutlets" : 1,
					"outlettype" : [ "" ],
					"patching_rect" : [ 1977.0, 414.0, 56.0, 23.0 ],
					"text" : "deferlow"
				}

			}
, 			{
				"box" : 				{
					"id" : "obj-156",
					"maxclass" : "newobj",
					"numinlets" : 2,
					"numoutlets" : 1,
					"outlettype" : [ "int" ],
					"patching_rect" : [ 1861.0, 698.699999630451202, 31.0, 23.0 ],
					"text" : "% 1."
				}

			}
, 			{
				"box" : 				{
					"id" : "obj-155",
					"maxclass" : "newobj",
					"numinlets" : 1,
					"numoutlets" : 3,
					"outlettype" : [ "", "int", "int" ],
					"patching_rect" : [ 2010.75, 372.5, 46.0, 23.0 ],
					"text" : "change"
				}

			}
, 			{
				"box" : 				{
					"id" : "obj-154",
					"maxclass" : "newobj",
					"numinlets" : 2,
					"numoutlets" : 1,
					"outlettype" : [ "int" ],
					"patching_rect" : [ 2010.75, 339.0, 29.5, 23.0 ],
					"text" : "i"
				}

			}
, 			{
				"box" : 				{
					"id" : "obj-153",
					"maxclass" : "newobj",
					"numinlets" : 2,
					"numoutlets" : 1,
					"outlettype" : [ "float" ],
					"patching_rect" : [ 2010.75, 301.0, 80.0, 23.0 ],
					"text" : "snapshot~ 33"
				}

			}
, 			{
				"box" : 				{
					"id" : "obj-152",
					"maxclass" : "message",
					"numinlets" : 2,
					"numoutlets" : 1,
					"outlettype" : [ "" ],
					"patching_rect" : [ 1861.0, 738.0, 55.0, 23.0 ],
					"text" : "xfade $1"
				}

			}
, 			{
				"box" : 				{
					"id" : "obj-148",
					"maxclass" : "newobj",
					"numinlets" : 2,
					"numoutlets" : 2,
					"outlettype" : [ "jit_matrix", "" ],
					"patching_rect" : [ 1611.400022804737091, 773.0, 51.0, 23.0 ],
					"text" : "jit.xfade"
				}

			}
, 			{
				"box" : 				{
					"id" : "obj-130",
					"maxclass" : "newobj",
					"numinlets" : 2,
					"numoutlets" : 1,
					"outlettype" : [ "int" ],
					"patching_rect" : [ 2043.25, 470.600005030632019, 29.5, 23.0 ],
					"text" : "+ 1"
				}

			}
, 			{
				"box" : 				{
					"id" : "obj-129",
					"maxclass" : "newobj",
					"numinlets" : 2,
					"numoutlets" : 1,
					"outlettype" : [ "int" ],
					"patching_rect" : [ 1640.0, 542.0, 29.5, 23.0 ],
					"text" : "+ 1"
				}

			}
, 			{
				"box" : 				{
					"id" : "obj-128",
					"maxclass" : "newobj",
					"numinlets" : 2,
					"numoutlets" : 1,
					"outlettype" : [ "float" ],
					"patching_rect" : [ 2029.0, 522.5, 29.5, 23.0 ],
					"text" : "* 1."
				}

			}
, 			{
				"box" : 				{
					"id" : "obj-126",
					"maxclass" : "newobj",
					"numinlets" : 2,
					"numoutlets" : 1,
					"outlettype" : [ "float" ],
					"patching_rect" : [ 1629.5, 585.0, 29.5, 23.0 ],
					"text" : "* 1."
				}

			}
, 			{
				"box" : 				{
					"id" : "obj-125",
					"maxclass" : "newobj",
					"numinlets" : 2,
					"numoutlets" : 1,
					"outlettype" : [ "float" ],
					"patching_rect" : [ 1598.0, 585.0, 29.5, 23.0 ],
					"text" : "* 0."
				}

			}
, 			{
				"box" : 				{
					"id" : "obj-122",
					"maxclass" : "newobj",
					"numinlets" : 2,
					"numoutlets" : 1,
					"outlettype" : [ "float" ],
					"patching_rect" : [ 1716.0, 581.0, 34.0, 23.0 ],
					"text" : "/ 64."
				}

			}
, 			{
				"box" : 				{
					"format" : 6,
					"id" : "obj-121",
					"maxclass" : "flonum",
					"numinlets" : 1,
					"numoutlets" : 2,
					"outlettype" : [ "", "bang" ],
					"parameter_enable" : 0,
					"patching_rect" : [ 1798.0, 522.5, 119.0, 23.0 ]
				}

			}
, 			{
				"box" : 				{
					"id" : "obj-119",
					"maxclass" : "newobj",
					"numinlets" : 2,
					"numoutlets" : 1,
					"outlettype" : [ "float" ],
					"patching_rect" : [ 1717.900022804737091, 537.0, 29.5, 23.0 ],
					"text" : "* 1."
				}

			}
, 			{
				"box" : 				{
					"id" : "obj-118",
					"maxclass" : "newobj",
					"numinlets" : 2,
					"numoutlets" : 1,
					"outlettype" : [ "float" ],
					"patching_rect" : [ 1728.400022804737091, 501.0, 48.0, 23.0 ],
					"text" : "/ 1000."
				}

			}
, 			{
				"box" : 				{
					"id" : "obj-96",
					"maxclass" : "newobj",
					"numinlets" : 1,
					"numoutlets" : 2,
					"outlettype" : [ "bang", "int" ],
					"patching_rect" : [ 1733.0, 372.5, 29.5, 23.0 ],
					"text" : "t b i"
				}

			}
, 			{
				"box" : 				{
					"format" : 6,
					"id" : "obj-92",
					"maxclass" : "flonum",
					"numinlets" : 1,
					"numoutlets" : 2,
					"outlettype" : [ "", "bang" ],
					"parameter_enable" : 0,
					"patching_rect" : [ 1916.0, 323.0, 50.0, 23.0 ]
				}

			}
, 			{
				"box" : 				{
					"id" : "obj-78",
					"maxclass" : "newobj",
					"numinlets" : 2,
					"numoutlets" : 1,
					"outlettype" : [ "" ],
					"patching_rect" : [ 2036.0, 560.0, 29.5, 23.0 ],
					"text" : "join"
				}

			}
, 			{
				"box" : 				{
					"id" : "obj-84",
					"maxclass" : "newobj",
					"numinlets" : 1,
					"numoutlets" : 3,
					"outlettype" : [ "jit_matrix", "jit_matrix", "" ],
					"patching_rect" : [ 2035.999999804737172, 620.699999630451202, 111.0, 23.0 ],
					"text" : "jit.buffer~ #0_wt"
				}

			}
, 			{
				"box" : 				{
					"id" : "obj-85",
					"maxclass" : "message",
					"numinlets" : 2,
					"numoutlets" : 1,
					"outlettype" : [ "" ],
					"patching_rect" : [ 2036.0, 590.699999630451202, 78.0, 23.0 ],
					"text" : "output $1 $2"
				}

			}
, 			{
				"box" : 				{
					"id" : "obj-75",
					"maxclass" : "newobj",
					"numinlets" : 2,
					"numoutlets" : 1,
					"outlettype" : [ "" ],
					"patching_rect" : [ 1611.400022804737091, 625.0, 29.5, 23.0 ],
					"text" : "join"
				}

			}
, 			{
				"box" : 				{
					"id" : "obj-67",
					"maxclass" : "number",
					"numinlets" : 1,
					"numoutlets" : 2,
					"outlettype" : [ "", "bang" ],
					"parameter_enable" : 0,
					"patching_rect" : [ 1802.400022804737091, 314.0, 50.0, 23.0 ]
				}

			}
, 			{
				"box" : 				{
					"id" : "obj-45",
					"maxclass" : "newobj",
					"numinlets" : 1,
					"numoutlets" : 9,
					"outlettype" : [ "float", "list", "float", "float", "float", "float", "float", "", "int" ],
					"patching_rect" : [ 1665.400022804737091, 470.600005030632019, 103.0, 23.0 ],
					"text" : "info~ #0_wt"
				}

			}
, 			{
				"box" : 				{
					"id" : "obj-40",
					"maxclass" : "newobj",
					"numinlets" : 1,
					"numoutlets" : 3,
					"outlettype" : [ "jit_matrix", "jit_matrix", "" ],
					"patching_rect" : [ 1611.400022804737091, 698.699999630451202, 111.0, 23.0 ],
					"text" : "jit.buffer~ #0_wt"
				}

			}
, 			{
				"box" : 				{
					"id" : "obj-115",
					"maxclass" : "newobj",
					"numinlets" : 2,
					"numoutlets" : 1,
					"outlettype" : [ "signal" ],
					"patching_rect" : [ 161.0, 610.0, 47.0, 23.0 ],
					"text" : "*~ 0.25"
				}

			}
, 			{
				"box" : 				{
					"id" : "obj-114",
					"maxclass" : "newobj",
					"numinlets" : 1,
					"numoutlets" : 1,
					"outlettype" : [ "" ],
					"patching_rect" : [ 607.5, 692.0, 95.0, 23.0 ],
					"text" : "prepend append"
				}

			}
, 			{
				"box" : 				{
					"id" : "obj-113",
					"maxclass" : "newobj",
					"numinlets" : 1,
					"numoutlets" : 5,
					"outlettype" : [ "", "", "", "", "" ],
					"patching_rect" : [ 607.5, 629.0, 94.0, 23.0 ],
					"text" : "regexp .WAV \" \""
				}

			}
, 			{
				"box" : 				{
					"id" : "obj-112",
					"maxclass" : "newobj",
					"numinlets" : 1,
					"numoutlets" : 2,
					"outlettype" : [ "", "clear" ],
					"patching_rect" : [ 744.0, 595.0, 47.0, 23.0 ],
					"text" : "t l clear"
				}

			}
, 			{
				"box" : 				{
					"id" : "obj-111",
					"maxclass" : "newobj",
					"numinlets" : 1,
					"numoutlets" : 3,
					"outlettype" : [ "", "", "" ],
					"patching_rect" : [ 596.5, 595.0, 41.0, 23.0 ],
					"text" : "unjoin"
				}

			}
, 			{
				"box" : 				{
					"id" : "obj-110",
					"maxclass" : "live.comment",
					"numinlets" : 1,
					"numoutlets" : 0,
					"patching_rect" : [ 157.33333146572113, 123.0, 150.0, 18.0 ],
					"presentation" : 1,
					"presentation_rect" : [ 113.0, 125.5, 73.0, 18.0 ],
					"text" : "Envelope Time",
					"textjustification" : 0
				}

			}
, 			{
				"box" : 				{
					"id" : "obj-109",
					"maxclass" : "live.comment",
					"numinlets" : 1,
					"numoutlets" : 0,
					"patching_rect" : [ 11.0, 122.0, 150.0, 18.0 ],
					"presentation" : 1,
					"presentation_rect" : [ 14.0, 127.0, 73.0, 18.0 ],
					"text" : "Row ADSR",
					"textjustification" : 0
				}

			}
, 			{
				"box" : 				{
					"id" : "obj-103",
					"maxclass" : "newobj",
					"numinlets" : 1,
					"numoutlets" : 2,
					"outlettype" : [ "bang", "" ],
					"patching_rect" : [ 323.0, 113.0, 29.5, 23.0 ],
					"text" : "t b l"
				}

			}
, 			{
				"box" : 				{
					"id" : "obj-104",
					"maxclass" : "newobj",
					"numinlets" : 2,
					"numoutlets" : 1,
					"outlettype" : [ "float" ],
					"patching_rect" : [ 501.0, 37.5, 29.5, 23.0 ],
					"text" : "/ 3."
				}

			}
, 			{
				"box" : 				{
					"hint" : "Sets the time of the entire envelope proportionally",
					"id" : "obj-105",
					"maxclass" : "live.numbox",
					"numinlets" : 1,
					"numoutlets" : 2,
					"outlettype" : [ "", "float" ],
					"parameter_enable" : 1,
					"patching_rect" : [ 501.0, 16.0, 44.0, 15.0 ],
					"presentation" : 1,
					"presentation_rect" : [ 188.0, 127.0, 44.0, 15.0 ],
					"saved_attribute_attributes" : 					{
						"valueof" : 						{
							"parameter_initial" : [ 6000 ],
							"parameter_initial_enable" : 1,
							"parameter_longname" : "live.numbox[8]",
							"parameter_mmax" : 10000.0,
							"parameter_mmin" : 1000.0,
							"parameter_shortname" : "live.numbox",
							"parameter_type" : 0,
							"parameter_unitstyle" : 2
						}

					}
,
					"varname" : "live.numbox[1]"
				}

			}
, 			{
				"box" : 				{
					"id" : "obj-106",
					"maxclass" : "message",
					"numinlets" : 2,
					"numoutlets" : 1,
					"outlettype" : [ "" ],
					"patching_rect" : [ 331.0, 88.0, 127.0, 23.0 ],
					"text" : "release_domain 1.5 $1"
				}

			}
, 			{
				"box" : 				{
					"id" : "obj-107",
					"maxclass" : "message",
					"numinlets" : 2,
					"numoutlets" : 1,
					"outlettype" : [ "" ],
					"patching_rect" : [ 327.0, 50.0, 121.0, 23.0 ],
					"text" : "decay_domain 1.5 $1"
				}

			}
, 			{
				"box" : 				{
					"id" : "obj-108",
					"maxclass" : "message",
					"numinlets" : 2,
					"numoutlets" : 1,
					"outlettype" : [ "" ],
					"patching_rect" : [ 327.0, 8.0, 115.0, 23.0 ],
					"text" : "attack_domain 0. $1"
				}

			}
, 			{
				"box" : 				{
					"id" : "obj-101",
					"maxclass" : "message",
					"numinlets" : 2,
					"numoutlets" : 1,
					"outlettype" : [ "" ],
					"patching_rect" : [ 323.0, 370.0, 32.0, 23.0 ],
					"text" : "$1 5"
				}

			}
, 			{
				"box" : 				{
					"id" : "obj-102",
					"maxclass" : "newobj",
					"numinlets" : 2,
					"numoutlets" : 2,
					"outlettype" : [ "signal", "bang" ],
					"patching_rect" : [ 348.0, 399.0, 34.0, 23.0 ],
					"text" : "line~"
				}

			}
, 			{
				"box" : 				{
					"appearance" : 1,
					"id" : "obj-100",
					"maxclass" : "live.dial",
					"numinlets" : 1,
					"numoutlets" : 2,
					"outlettype" : [ "", "float" ],
					"parameter_enable" : 1,
					"patching_rect" : [ 323.0, 301.0, 25.0, 36.0 ],
					"presentation" : 1,
					"presentation_rect" : [ 52.5, 38.5, 49.0, 36.0 ],
					"saved_attribute_attributes" : 					{
						"valueof" : 						{
							"parameter_linknames" : 1,
							"parameter_longname" : "envelope rows[1]",
							"parameter_mmax" : 64.0,
							"parameter_shortname" : "env rows",
							"parameter_type" : 0,
							"parameter_unitstyle" : 1
						}

					}
,
					"varname" : "envelope rows"
				}

			}
, 			{
				"box" : 				{
					"id" : "obj-98",
					"maxclass" : "newobj",
					"numinlets" : 10,
					"numoutlets" : 1,
					"outlettype" : [ "" ],
					"patching_rect" : [ 466.5, 153.0, 113.5, 23.0 ],
					"text" : "join 10 @triggers -1"
				}

			}
, 			{
				"box" : 				{
					"activebgcolor" : [ 0.611764705882353, 0.611764705882353, 0.611764705882353, 0.18 ],
					"activehandlecolor" : [ 0.0, 0.847058823529412, 0.831372549019608, 1.0 ],
					"activelinecolor" : [ 0.309803921568627, 0.0, 1.0, 1.0 ],
					"activeslopehandlecolor" : [ 0.0, 0.847058823529412, 0.831372549019608, 1.0 ],
					"attack_domain" : [ 0.0, 2000.0 ],
					"attack_time" : 1527.117631083365495,
					"decay_domain" : [ 1.5, 2000.0 ],
					"decay_slope" : -0.175656984785615,
					"decay_time" : 2000.0,
					"hint" : "Sets the envelope for each synth note",
					"id" : "obj-99",
					"maxclass" : "live.adsrui",
					"numinlets" : 10,
					"numoutlets" : 10,
					"outlettype" : [ "", "", "", "", "", "", "", "", "", "" ],
					"patching_rect" : [ 497.0, 68.0, 184.0, 68.0 ],
					"peak" : 0.970588235294118,
					"presentation" : 1,
					"presentation_rect" : [ 14.0, 75.0, 217.0, 50.0 ],
					"release_domain" : [ 1.5, 2000.0 ],
					"release_time" : 389.869425349196092,
					"sustain" : 0.590588235294116
				}

			}
, 			{
				"box" : 				{
					"id" : "obj-97",
					"maxclass" : "message",
					"numinlets" : 2,
					"numoutlets" : 1,
					"outlettype" : [ "" ],
					"patching_rect" : [ 235.0, 370.0, 32.0, 23.0 ],
					"text" : "$1 5"
				}

			}
, 			{
				"box" : 				{
					"id" : "obj-95",
					"maxclass" : "newobj",
					"numinlets" : 2,
					"numoutlets" : 2,
					"outlettype" : [ "signal", "bang" ],
					"patching_rect" : [ 260.0, 399.0, 34.0, 23.0 ],
					"text" : "line~"
				}

			}
, 			{
				"box" : 				{
					"appearance" : 1,
					"id" : "obj-94",
					"maxclass" : "live.dial",
					"numinlets" : 1,
					"numoutlets" : 2,
					"outlettype" : [ "", "float" ],
					"parameter_enable" : 1,
					"patching_rect" : [ 236.0, 314.0, 25.0, 36.0 ],
					"presentation" : 1,
					"presentation_rect" : [ 7.0, 38.5, 49.0, 36.0 ],
					"saved_attribute_attributes" : 					{
						"valueof" : 						{
							"parameter_linknames" : 1,
							"parameter_longname" : "row position[1]",
							"parameter_mmax" : 64.0,
							"parameter_shortname" : "row",
							"parameter_type" : 0,
							"parameter_unitstyle" : 1
						}

					}
,
					"varname" : "row position"
				}

			}
, 			{
				"box" : 				{
					"id" : "obj-89",
					"maxclass" : "newobj",
					"numinlets" : 2,
					"numoutlets" : 1,
					"outlettype" : [ "signal" ],
					"patching_rect" : [ 264.5, 433.0, 29.5, 23.0 ],
					"text" : "+~"
				}

			}
, 			{
				"box" : 				{
					"id" : "obj-88",
					"maxclass" : "newobj",
					"numinlets" : 6,
					"numoutlets" : 1,
					"outlettype" : [ "signal" ],
					"patching_rect" : [ 162.0, 542.0, 275.0, 23.0 ],
					"text" : "poly~ _mb.poly.wt2d 32 @args #0_wt @target 0"
				}

			}
, 			{
				"box" : 				{
					"id" : "obj-69",
					"maxclass" : "newobj",
					"numinlets" : 1,
					"numoutlets" : 1,
					"outlettype" : [ "" ],
					"patching_rect" : [ 607.5, 369.0, 118.0, 23.0 ],
					"text" : "_mb.inputConnected"
				}

			}
, 			{
				"box" : 				{
					"id" : "obj-70",
					"maxclass" : "newobj",
					"numinlets" : 1,
					"numoutlets" : 1,
					"outlettype" : [ "" ],
					"patching_rect" : [ 606.0, 310.0, 75.0, 23.0 ],
					"text" : "_mb.lfoInput"
				}

			}
, 			{
				"box" : 				{
					"angle" : 270.0,
					"bgcolor" : [ 0.75, 0.75, 0.75, 1 ],
					"hint" : "Pitch Bend in Semitones (signal or data LFO) modulates the pitch in semitones. Try connecting a pitchbend or LFO.",
					"id" : "obj-71",
					"maxclass" : "panel",
					"mode" : 0,
					"numinlets" : 1,
					"numoutlets" : 0,
					"patching_rect" : [ 607.5, 406.0, 43.0, 43.0 ],
					"presentation" : 1,
					"presentation_rect" : [ 207.5, 4.0, 5.0, 5.0 ],
					"proportion" : 0.39,
					"shape" : 1
				}

			}
, 			{
				"box" : 				{
					"id" : "obj-73",
					"maxclass" : "comment",
					"numinlets" : 1,
					"numoutlets" : 0,
					"patching_rect" : [ 638.0, 264.0, 150.0, 21.0 ],
					"text" : "WT position (0-64)"
				}

			}
, 			{
				"box" : 				{
					"comment" : "Pitch Bend in Semitones (signal or data LFO)",
					"id" : "obj-74",
					"index" : 2,
					"maxclass" : "inlet",
					"numinlets" : 0,
					"numoutlets" : 1,
					"outlettype" : [ "" ],
					"patching_rect" : [ 606.0, 254.0, 30.0, 30.0 ]
				}

			}
, 			{
				"box" : 				{
					"id" : "obj-62",
					"maxclass" : "newobj",
					"numinlets" : 1,
					"numoutlets" : 1,
					"outlettype" : [ "signal" ],
					"patcher" : 					{
						"fileversion" : 1,
						"appversion" : 						{
							"major" : 8,
							"minor" : 3,
							"revision" : 1,
							"architecture" : "x64",
							"modernui" : 1
						}
,
						"classnamespace" : "box",
						"rect" : [ 985.0, 586.0, 1082.0, 597.0 ],
						"bglocked" : 0,
						"openinpresentation" : 0,
						"default_fontsize" : 12.0,
						"default_fontface" : 0,
						"default_fontname" : "Lato",
						"gridonopen" : 1,
						"gridsize" : [ 15.0, 15.0 ],
						"gridsnaponopen" : 1,
						"objectsnaponopen" : 1,
						"statusbarvisible" : 2,
						"toolbarvisible" : 1,
						"lefttoolbarpinned" : 0,
						"toptoolbarpinned" : 0,
						"righttoolbarpinned" : 0,
						"bottomtoolbarpinned" : 0,
						"toolbars_unpinned_last_save" : 0,
						"tallnewobj" : 0,
						"boxanimatetime" : 200,
						"enablehscroll" : 1,
						"enablevscroll" : 1,
						"devicewidth" : 0.0,
						"description" : "",
						"digest" : "",
						"tags" : "",
						"style" : "Minimal-1",
						"subpatcher_template" : "minimal",
						"assistshowspatchername" : 0,
						"boxes" : [ 							{
								"box" : 								{
									"id" : "obj-58",
									"maxclass" : "newobj",
									"numinlets" : 2,
									"numoutlets" : 1,
									"outlettype" : [ "signal" ],
									"patching_rect" : [ 50.0, 154.5, 29.5, 23.0 ],
									"text" : "-~"
								}

							}
, 							{
								"box" : 								{
									"id" : "obj-57",
									"maxclass" : "newobj",
									"numinlets" : 2,
									"numoutlets" : 1,
									"outlettype" : [ "signal" ],
									"patching_rect" : [ 75.0, 100.0, 68.0, 23.0 ],
									"text" : "onepole~ 5"
								}

							}
, 							{
								"box" : 								{
									"comment" : "",
									"id" : "obj-60",
									"index" : 1,
									"maxclass" : "inlet",
									"numinlets" : 0,
									"numoutlets" : 1,
									"outlettype" : [ "signal" ],
									"patching_rect" : [ 56.5, 40.0, 30.0, 30.0 ]
								}

							}
, 							{
								"box" : 								{
									"comment" : "",
									"id" : "obj-61",
									"index" : 1,
									"maxclass" : "outlet",
									"numinlets" : 1,
									"numoutlets" : 0,
									"patching_rect" : [ 50.0, 200.5, 30.0, 30.0 ]
								}

							}
 ],
						"lines" : [ 							{
								"patchline" : 								{
									"destination" : [ "obj-58", 1 ],
									"source" : [ "obj-57", 0 ]
								}

							}
, 							{
								"patchline" : 								{
									"destination" : [ "obj-61", 0 ],
									"source" : [ "obj-58", 0 ]
								}

							}
, 							{
								"patchline" : 								{
									"destination" : [ "obj-57", 0 ],
									"order" : 0,
									"source" : [ "obj-60", 0 ]
								}

							}
, 							{
								"patchline" : 								{
									"destination" : [ "obj-58", 0 ],
									"order" : 1,
									"source" : [ "obj-60", 0 ]
								}

							}
 ],
						"styles" : [ 							{
								"name" : "Minimal",
								"default" : 								{
									"accentcolor" : [ 0.0, 0.0, 0.0, 1.0 ],
									"bgcolor" : [ 0.999999, 0.999974, 0.999991, 1.0 ],
									"bgfillcolor" : 									{
										"angle" : 270.0,
										"autogradient" : 0.0,
										"color" : [ 0.65098, 0.666667, 0.662745, 1.0 ],
										"color1" : [ 0.65098, 0.666667, 0.662745, 1.0 ],
										"color2" : [ 0.290196, 0.309804, 0.301961, 1.0 ],
										"proportion" : 0.39,
										"type" : "color"
									}
,
									"color" : [ 0.0, 0.0, 0.0, 1.0 ],
									"editing_bgcolor" : [ 0.956862745098039, 0.956862745098039, 0.956862745098039, 1.0 ],
									"elementcolor" : [ 0.647058823529412, 0.647058823529412, 0.647058823529412, 1.0 ],
									"fontface" : [ 0 ],
									"fontname" : [ "Futura Medium" ],
									"fontsize" : [ 10.0 ],
									"selectioncolor" : [ 0.0, 0.0, 0.0, 1.0 ],
									"textcolor_inverse" : [ 0.0, 0.0, 0.0, 1.0 ]
								}
,
								"parentstyle" : "",
								"multi" : 0
							}
, 							{
								"name" : "Minimal-1",
								"default" : 								{
									"accentcolor" : [ 0.0, 0.0, 0.0, 1.0 ],
									"bgcolor" : [ 0.999999, 0.999974, 0.999991, 1.0 ],
									"bgfillcolor" : 									{
										"angle" : 270.0,
										"autogradient" : 0.0,
										"color" : [ 0.65098, 0.666667, 0.662745, 1.0 ],
										"color1" : [ 0.65098, 0.666667, 0.662745, 1.0 ],
										"color2" : [ 0.290196, 0.309804, 0.301961, 1.0 ],
										"proportion" : 0.39,
										"type" : "color"
									}
,
									"color" : [ 0.0, 0.0, 0.0, 1.0 ],
									"editing_bgcolor" : [ 0.956862745098039, 0.956862745098039, 0.956862745098039, 1.0 ],
									"elementcolor" : [ 0.741176470588235, 0.741176470588235, 0.741176470588235, 1.0 ],
									"fontface" : [ 0 ],
									"fontname" : [ "Lato" ],
									"fontsize" : [ 12.0 ],
									"selectioncolor" : [ 0.0, 0.0, 0.0, 1.0 ],
									"textcolor_inverse" : [ 0.0, 0.0, 0.0, 1.0 ]
								}
,
								"parentstyle" : "",
								"multi" : 0
							}
 ]
					}
,
					"patching_rect" : [ 162.0, 687.0, 70.0, 23.0 ],
					"saved_object_attributes" : 					{
						"description" : "",
						"digest" : "",
						"fontname" : "Lato",
						"globalpatchername" : "",
						"style" : "Minimal-1",
						"tags" : ""
					}
,
					"text" : "p dcblocker"
				}

			}
, 			{
				"box" : 				{
					"fontsize" : 10.0,
					"id" : "obj-46",
					"items" : [ "AKVF_VID", ",", "AKWF_FMS", ",", "FMADDI02", ",", "FOURIER", ",", "GLITCHBO", ",", "HARMONIX", ",", "HYPERBOL", ",", "SINE_MUT", ",", "SINE_SPE", ",", "SUPERSAW", ",", "VOCAL_00", ",", "VOXSYNTH" ],
					"maxclass" : "umenu",
					"numinlets" : 1,
					"numoutlets" : 3,
					"outlettype" : [ "int", "", "" ],
					"parameter_enable" : 0,
					"patching_rect" : [ 715.0, 747.5, 159.0, 20.0 ],
					"pattrmode" : 1,
					"presentation" : 1,
					"presentation_rect" : [ 103.5, 47.0, 127.5, 20.0 ],
					"varname" : "wavetable"
				}

			}
, 			{
				"box" : 				{
					"id" : "obj-37",
					"maxclass" : "newobj",
					"numinlets" : 1,
					"numoutlets" : 1,
					"outlettype" : [ "" ],
					"patching_rect" : [ 1101.0, 569.5, 57.0, 23.0 ],
					"text" : "tosymbol"
				}

			}
, 			{
				"box" : 				{
					"id" : "obj-29",
					"maxclass" : "newobj",
					"numinlets" : 1,
					"numoutlets" : 5,
					"outlettype" : [ "", "", "", "", "" ],
					"patching_rect" : [ 1101.0, 522.5, 317.0, 23.0 ],
					"text" : "regexp \"extras/Max Bricks\" @substitute media/wavetables"
				}

			}
, 			{
				"box" : 				{
					"id" : "obj-38",
					"maxclass" : "message",
					"numinlets" : 2,
					"numoutlets" : 1,
					"outlettype" : [ "" ],
					"patching_rect" : [ 1098.0, 441.5, 76.0, 23.0 ],
					"text" : "\"Max Bricks\""
				}

			}
, 			{
				"box" : 				{
					"id" : "obj-39",
					"maxclass" : "newobj",
					"numinlets" : 1,
					"numoutlets" : 1,
					"outlettype" : [ "" ],
					"patching_rect" : [ 1101.0, 491.5, 77.0, 23.0 ],
					"text" : "absolutepath"
				}

			}
, 			{
				"box" : 				{
					"id" : "obj-36",
					"maxclass" : "newobj",
					"numinlets" : 1,
					"numoutlets" : 1,
					"outlettype" : [ "bang" ],
					"patching_rect" : [ 572.0, 467.0, 56.0, 23.0 ],
					"text" : "loadbang"
				}

			}
, 			{
				"box" : 				{
					"id" : "obj-35",
					"maxclass" : "button",
					"numinlets" : 1,
					"numoutlets" : 1,
					"outlettype" : [ "bang" ],
					"parameter_enable" : 0,
					"patching_rect" : [ 559.0, 506.0, 24.0, 24.0 ]
				}

			}
, 			{
				"box" : 				{
					"id" : "obj-33",
					"maxclass" : "message",
					"numinlets" : 2,
					"numoutlets" : 1,
					"outlettype" : [ "" ],
					"patching_rect" : [ 597.0, 497.0, 76.0, 23.0 ],
					"text" : "types WAVE"
				}

			}
, 			{
				"box" : 				{
					"id" : "obj-27",
					"maxclass" : "newobj",
					"numinlets" : 1,
					"numoutlets" : 2,
					"outlettype" : [ "", "int" ],
					"patching_rect" : [ 595.0, 532.0, 40.0, 23.0 ],
					"text" : "folder"
				}

			}
, 			{
				"box" : 				{
					"id" : "obj-26",
					"maxclass" : "message",
					"numinlets" : 2,
					"numoutlets" : 1,
					"outlettype" : [ "" ],
					"patching_rect" : [ 785.0, 782.0, 64.0, 23.0 ],
					"text" : "replace $1"
				}

			}
, 			{
				"box" : 				{
					"id" : "obj-20",
					"maxclass" : "newobj",
					"numinlets" : 1,
					"numoutlets" : 2,
					"outlettype" : [ "float", "bang" ],
					"patching_rect" : [ 785.0, 816.0, 98.0, 23.0 ],
					"text" : "buffer~ #0_wt"
				}

			}
, 			{
				"box" : 				{
					"id" : "obj-19",
					"maxclass" : "live.text",
					"mode" : 0,
					"numinlets" : 1,
					"numoutlets" : 2,
					"outlettype" : [ "", "" ],
					"parameter_enable" : 1,
					"patching_rect" : [ 224.0, 204.0, 44.0, 15.0 ],
					"presentation" : 1,
					"presentation_rect" : [ 277.0, 17.5, 38.0, 20.0 ],
					"saved_attribute_attributes" : 					{
						"valueof" : 						{
							"parameter_enum" : [ "val1", "val2" ],
							"parameter_longname" : "live.text[19]",
							"parameter_mmax" : 1,
							"parameter_shortname" : "live.text[1]",
							"parameter_type" : 2
						}

					}
,
					"text" : "panic",
					"varname" : "live.text[1]"
				}

			}
, 			{
				"box" : 				{
					"id" : "obj-72",
					"maxclass" : "newobj",
					"numinlets" : 1,
					"numoutlets" : 1,
					"outlettype" : [ "" ],
					"patching_rect" : [ 844.5, 191.0, 53.0, 23.0 ],
					"text" : "pcontrol"
				}

			}
, 			{
				"box" : 				{
					"id" : "obj-31",
					"maxclass" : "message",
					"numinlets" : 2,
					"numoutlets" : 1,
					"outlettype" : [ "" ],
					"patching_rect" : [ 797.0, 74.0, 31.0, 23.0 ],
					"text" : "help"
				}

			}
, 			{
				"box" : 				{
					"id" : "obj-24",
					"maxclass" : "newobj",
					"numinlets" : 1,
					"numoutlets" : 1,
					"outlettype" : [ "bang" ],
					"patching_rect" : [ 552.0, 34.0, 56.0, 23.0 ],
					"text" : "loadbang"
				}

			}
, 			{
				"box" : 				{
					"activebgcolor" : [ 1.0, 1.0, 1.0, 0.0 ],
					"activebgoncolor" : [ 1.0, 0.709803921568627, 0.196078431372549, 0.0 ],
					"activetextcolor" : [ 1.0, 1.0, 1.0, 1.0 ],
					"bgcolor" : [ 0.647058823529412, 0.647058823529412, 0.647058823529412, 0.0 ],
					"bordercolor" : [ 0.313725490196078, 0.313725490196078, 0.313725490196078, 0.0 ],
					"hint" : "Additive synthesis occurs when a sounds is created from the sum of other sounds. This block is an example of harmonic additive synthesis where a sound is contructed based on adding different partials from the same harmonic series together.\nClick to find out more.",
					"id" : "obj-93",
					"maxclass" : "live.text",
					"mode" : 0,
					"numinlets" : 1,
					"numoutlets" : 2,
					"outlettype" : [ "", "" ],
					"parameter_enable" : 1,
					"parameter_mappable" : 0,
					"patching_rect" : [ 791.5, 34.0, 30.0, 32.0 ],
					"pictures" : [ "mb.infoIcon.svg", "mb.infoIcon.svg" ],
					"presentation" : 1,
					"presentation_rect" : [ 397.0, 12.5, 21.0, 22.75 ],
					"remapsvgcolors" : 1,
					"saved_attribute_attributes" : 					{
						"activebgcolor" : 						{
							"expression" : ""
						}
,
						"activebgoncolor" : 						{
							"expression" : ""
						}
,
						"activetextcolor" : 						{
							"expression" : ""
						}
,
						"bgcolor" : 						{
							"expression" : ""
						}
,
						"bordercolor" : 						{
							"expression" : ""
						}
,
						"textcolor" : 						{
							"expression" : ""
						}
,
						"valueof" : 						{
							"parameter_enum" : [ "val1", "val2" ],
							"parameter_invisible" : 2,
							"parameter_longname" : "live.text[20]",
							"parameter_mmax" : 1,
							"parameter_shortname" : "live.text",
							"parameter_type" : 2
						}

					}
,
					"textcolor" : [ 0.0, 0.0, 0.0, 1.0 ],
					"usepicture" : 1,
					"varname" : "live.text"
				}

			}
, 			{
				"box" : 				{
					"id" : "obj-91",
					"maxclass" : "newobj",
					"numinlets" : 1,
					"numoutlets" : 1,
					"outlettype" : [ "" ],
					"patching_rect" : [ 747.5, 369.0, 118.0, 23.0 ],
					"text" : "_mb.inputConnected"
				}

			}
, 			{
				"box" : 				{
					"id" : "obj-90",
					"maxclass" : "newobj",
					"numinlets" : 1,
					"numoutlets" : 1,
					"outlettype" : [ "" ],
					"patching_rect" : [ 17.5, 369.0, 118.0, 23.0 ],
					"text" : "_mb.inputConnected"
				}

			}
, 			{
				"box" : 				{
					"channels" : 1,
					"id" : "obj-76",
					"lastchannelcount" : 0,
					"maxclass" : "live.gain~",
					"numinlets" : 1,
					"numoutlets" : 4,
					"orientation" : 1,
					"outlettype" : [ "signal", "", "float", "list" ],
					"parameter_enable" : 1,
					"patching_rect" : [ 162.0, 732.0, 136.0, 20.0 ],
					"presentation" : 1,
					"presentation_rect" : [ 317.0, 18.5, 78.0, 20.0 ],
					"saved_attribute_attributes" : 					{
						"valueof" : 						{
							"parameter_longname" : "live.gain~[10]",
							"parameter_mmax" : 6.0,
							"parameter_mmin" : -70.0,
							"parameter_shortname" : "live.gain~",
							"parameter_type" : 0,
							"parameter_unitstyle" : 4
						}

					}
,
					"showname" : 0,
					"shownumber" : 0,
					"varname" : "live.gain~"
				}

			}
, 			{
				"box" : 				{
					"id" : "obj-53",
					"maxclass" : "newobj",
					"numinlets" : 1,
					"numoutlets" : 1,
					"outlettype" : [ "bang" ],
					"patching_rect" : [ 1047.0, 226.0, 56.0, 23.0 ],
					"text" : "loadbang"
				}

			}
, 			{
				"box" : 				{
					"id" : "obj-50",
					"maxclass" : "newobj",
					"numinlets" : 1,
					"numoutlets" : 2,
					"outlettype" : [ "bang", "" ],
					"patching_rect" : [ 1170.0, 301.0, 29.5, 23.0 ],
					"text" : "t b l"
				}

			}
, 			{
				"box" : 				{
					"id" : "obj-49",
					"maxclass" : "live.comment",
					"numinlets" : 1,
					"numoutlets" : 0,
					"patching_rect" : [ 1414.0, 219.0, 150.0, 18.0 ],
					"presentation" : 1,
					"presentation_rect" : [ 14.0, 195.0, 73.0, 18.0 ],
					"text" : "Voice ADSR",
					"textjustification" : 0
				}

			}
, 			{
				"box" : 				{
					"id" : "obj-43",
					"maxclass" : "live.comment",
					"numinlets" : 1,
					"numoutlets" : 0,
					"patching_rect" : [ 1399.0, 204.0, 150.0, 18.0 ],
					"presentation" : 1,
					"presentation_rect" : [ 120.33333146572113, 195.0, 73.0, 18.0 ],
					"text" : "Envelope Time",
					"textjustification" : 0
				}

			}
, 			{
				"box" : 				{
					"id" : "obj-16",
					"maxclass" : "newobj",
					"numinlets" : 2,
					"numoutlets" : 1,
					"outlettype" : [ "float" ],
					"patching_rect" : [ 1348.0, 225.5, 29.5, 23.0 ],
					"text" : "/ 3."
				}

			}
, 			{
				"box" : 				{
					"hint" : "Sets the time of the entire envelope proportionally",
					"id" : "obj-44",
					"maxclass" : "live.numbox",
					"numinlets" : 1,
					"numoutlets" : 2,
					"outlettype" : [ "", "float" ],
					"parameter_enable" : 1,
					"patching_rect" : [ 1348.0, 204.0, 44.0, 15.0 ],
					"presentation" : 1,
					"presentation_rect" : [ 188.0, 198.0, 44.0, 15.0 ],
					"saved_attribute_attributes" : 					{
						"valueof" : 						{
							"parameter_initial" : [ 6000 ],
							"parameter_initial_enable" : 1,
							"parameter_longname" : "live.numbox[5]",
							"parameter_mmax" : 10000.0,
							"parameter_mmin" : 1000.0,
							"parameter_shortname" : "live.numbox",
							"parameter_type" : 0,
							"parameter_unitstyle" : 2
						}

					}
,
					"varname" : "live.numbox"
				}

			}
, 			{
				"box" : 				{
					"id" : "obj-12",
					"maxclass" : "message",
					"numinlets" : 2,
					"numoutlets" : 1,
					"outlettype" : [ "" ],
					"patching_rect" : [ 1178.0, 276.0, 127.0, 23.0 ],
					"text" : "release_domain 1.5 $1"
				}

			}
, 			{
				"box" : 				{
					"id" : "obj-47",
					"maxclass" : "message",
					"numinlets" : 2,
					"numoutlets" : 1,
					"outlettype" : [ "" ],
					"patching_rect" : [ 1174.0, 238.0, 121.0, 23.0 ],
					"text" : "decay_domain 1.5 $1"
				}

			}
, 			{
				"box" : 				{
					"id" : "obj-10",
					"maxclass" : "message",
					"numinlets" : 2,
					"numoutlets" : 1,
					"outlettype" : [ "" ],
					"patching_rect" : [ 1174.0, 196.0, 115.0, 23.0 ],
					"text" : "attack_domain 0. $1"
				}

			}
, 			{
				"box" : 				{
					"id" : "obj-42",
					"maxclass" : "newobj",
					"numinlets" : 1,
					"numoutlets" : 1,
					"outlettype" : [ "" ],
					"patching_rect" : [ 162.0, 491.5, 102.0, 23.0 ],
					"text" : "prepend midinote"
				}

			}
, 			{
				"box" : 				{
					"id" : "obj-30",
					"maxclass" : "newobj",
					"numinlets" : 10,
					"numoutlets" : 1,
					"outlettype" : [ "" ],
					"patching_rect" : [ 890.5, 372.5, 113.5, 23.0 ],
					"text" : "join 10 @triggers -1"
				}

			}
, 			{
				"box" : 				{
					"activebgcolor" : [ 0.611764705882353, 0.611764705882353, 0.611764705882353, 0.18 ],
					"activehandlecolor" : [ 0.0, 0.129411764705882, 0.847058823529412, 1.0 ],
					"activelinecolor" : [ 0.0, 0.0, 0.0, 1.0 ],
					"activeslopehandlecolor" : [ 0.0, 0.129, 0.847, 1.0 ],
					"attack_domain" : [ 0.0, 2000.0 ],
					"attack_time" : 0.680456425282087,
					"decay_domain" : [ 1.5, 2000.0 ],
					"decay_time" : 2000.0,
					"hint" : "Sets the envelope for each synth note",
					"id" : "obj-28",
					"maxclass" : "live.adsrui",
					"numinlets" : 10,
					"numoutlets" : 10,
					"outlettype" : [ "", "", "", "", "", "", "", "", "", "" ],
					"patching_rect" : [ 890.5, 287.5, 184.0, 68.0 ],
					"presentation" : 1,
					"presentation_rect" : [ 14.0, 147.5, 217.0, 50.0 ],
					"release_domain" : [ 1.5, 2000.0 ],
					"release_time" : 389.869425349196092,
					"sustain" : 0.12
				}

			}
, 			{
				"box" : 				{
					"id" : "obj-11",
					"maxclass" : "newobj",
					"numinlets" : 2,
					"numoutlets" : 2,
					"outlettype" : [ "bang", "" ],
					"patching_rect" : [ 841.0, 74.0, 33.0, 23.0 ],
					"text" : "sel 0"
				}

			}
, 			{
				"box" : 				{
					"id" : "obj-21",
					"maxclass" : "newobj",
					"numinlets" : 1,
					"numoutlets" : 2,
					"outlettype" : [ "", "" ],
					"patching_rect" : [ 841.0, 43.0, 80.0, 23.0 ],
					"text" : "patcherargs 0"
				}

			}
, 			{
				"box" : 				{
					"id" : "obj-22",
					"maxclass" : "message",
					"numinlets" : 2,
					"numoutlets" : 1,
					"outlettype" : [ "" ],
					"patching_rect" : [ 841.0, 113.0, 99.0, 23.0 ],
					"text" : "autoTransform xl"
				}

			}
, 			{
				"box" : 				{
					"id" : "obj-25",
					"maxclass" : "newobj",
					"numinlets" : 1,
					"numoutlets" : 1,
					"outlettype" : [ "" ],
					"patching_rect" : [ 844.5, 156.0, 78.0, 23.0 ],
					"saved_object_attributes" : 					{
						"filename" : "mb.helpers",
						"parameter_enable" : 0
					}
,
					"text" : "js mb.helpers"
				}

			}
, 			{
				"box" : 				{
					"id" : "obj-7",
					"maxclass" : "newobj",
					"numinlets" : 1,
					"numoutlets" : 1,
					"outlettype" : [ "" ],
					"patching_rect" : [ 746.0, 310.0, 75.0, 23.0 ],
					"text" : "_mb.lfoInput"
				}

			}
, 			{
				"box" : 				{
					"id" : "obj-51",
					"linecount" : 2,
					"maxclass" : "comment",
					"numinlets" : 1,
					"numoutlets" : 0,
					"patching_rect" : [ 393.0, 199.0, 150.0, 35.0 ],
					"text" : "change the scaling of the sliders to be perseptual"
				}

			}
, 			{
				"box" : 				{
					"angle" : 270.0,
					"bgcolor" : [ 0.75, 0.75, 0.75, 1 ],
					"hint" : "Pitch Bend in Semitones (signal or data LFO) modulates the pitch in semitones. Try connecting a pitchbend or LFO.",
					"id" : "obj-18",
					"maxclass" : "panel",
					"mode" : 0,
					"numinlets" : 1,
					"numoutlets" : 0,
					"patching_rect" : [ 747.5, 406.0, 43.0, 43.0 ],
					"presentation" : 1,
					"presentation_rect" : [ 408.0, 3.0, 5.0, 5.0 ],
					"proportion" : 0.39,
					"shape" : 1
				}

			}
, 			{
				"box" : 				{
					"angle" : 270.0,
					"bgcolor" : [ 0.75, 0.75, 0.75, 1 ],
					"hint" : "MIDI Notes (pitch velocity) trigger voices (16) of the additive synth",
					"id" : "obj-15",
					"maxclass" : "panel",
					"mode" : 0,
					"numinlets" : 1,
					"numoutlets" : 0,
					"patching_rect" : [ 17.5, 401.0, 43.0, 43.0 ],
					"presentation" : 1,
					"presentation_rect" : [ 7.0, 3.5, 5.0, 5.0 ],
					"proportion" : 0.39,
					"shape" : 1
				}

			}
, 			{
				"box" : 				{
					"id" : "obj-9",
					"maxclass" : "comment",
					"numinlets" : 1,
					"numoutlets" : 0,
					"patching_rect" : [ 778.0, 264.0, 150.0, 21.0 ],
					"text" : "Pitch Bend (st)"
				}

			}
, 			{
				"box" : 				{
					"comment" : "Pitch Bend in Semitones (signal or data LFO)",
					"id" : "obj-3",
					"index" : 3,
					"maxclass" : "inlet",
					"numinlets" : 0,
					"numoutlets" : 1,
					"outlettype" : [ "" ],
					"patching_rect" : [ 746.0, 254.0, 30.0, 30.0 ]
				}

			}
, 			{
				"box" : 				{
					"fontface" : 1,
					"fontsize" : 16.0,
					"id" : "obj-59",
					"maxclass" : "comment",
					"numinlets" : 1,
					"numoutlets" : 0,
					"patching_rect" : [ 42.0, 20.0, 195.0, 26.0 ],
					"presentation" : 1,
					"presentation_rect" : [ 7.0, 12.5, 162.0, 26.0 ],
					"text" : "2D Wavetable",
					"textcolor" : [ 1.0, 1.0, 1.0, 1.0 ]
				}

			}
, 			{
				"box" : 				{
					"id" : "obj-55",
					"maxclass" : "newobj",
					"numinlets" : 1,
					"numoutlets" : 4,
					"outlettype" : [ "", "", "", "" ],
					"patching_rect" : [ 663.0, 25.0, 58.0, 23.0 ],
					"restore" : 					{
						"envelope rows" : [ 0.0 ],
						"live.gain~" : [ 0.0 ],
						"live.numbox" : [ 6000.0 ],
						"live.numbox[1]" : [ 6000.0 ],
						"live.text" : [ 0.0 ],
						"live.text[1]" : [ 0.0 ],
						"row position" : [ 0.0 ],
						"wavetable" : [ "SINE_MUT" ]
					}
,
					"text" : "autopattr",
					"varname" : "__MAXBRICKSTORAGE"
				}

			}
, 			{
				"box" : 				{
					"comment" : "",
					"id" : "obj-54",
					"index" : 1,
					"maxclass" : "outlet",
					"numinlets" : 1,
					"numoutlets" : 0,
					"patching_rect" : [ 162.0, 807.0, 30.0, 30.0 ]
				}

			}
, 			{
				"box" : 				{
					"comment" : "MIDI Note (pitch velocity)",
					"id" : "obj-41",
					"index" : 1,
					"maxclass" : "inlet",
					"numinlets" : 0,
					"numoutlets" : 1,
					"outlettype" : [ "" ],
					"patching_rect" : [ 177.0, 310.0, 30.0, 30.0 ]
				}

			}
, 			{
				"box" : 				{
					"angle" : 270.0,
					"background" : 1,
					"bgcolor" : [ 0.462745098039216, 0.701960784313725, 1.0, 1.0 ],
					"id" : "obj-8",
					"maxclass" : "panel",
					"mode" : 0,
					"numinlets" : 1,
					"numoutlets" : 0,
					"patching_rect" : [ 42.0, 14.0, 202.0, 38.0 ],
					"presentation" : 1,
					"presentation_rect" : [ 0.0, 10.5, 424.0, 30.0 ],
					"proportion" : 0.39,
					"rounded" : 0
				}

			}
, 			{
				"box" : 				{
					"angle" : 270.0,
					"background" : 1,
					"bgcolor" : [ 0.0, 0.0, 0.0, 1.0 ],
					"id" : "obj-17",
					"maxclass" : "panel",
					"mode" : 0,
					"numinlets" : 1,
					"numoutlets" : 0,
					"patching_rect" : [ 909.0, 401.0, 35.0, 38.0 ],
					"presentation" : 1,
					"presentation_rect" : [ 0.0, 0.0, 424.0, 12.5 ],
					"proportion" : 0.39,
					"rounded" : 0
				}

			}
, 			{
				"box" : 				{
					"angle" : 270.0,
					"background" : 1,
					"bgcolor" : [ 0.913725490196078, 0.984313725490196, 1.0, 1.0 ],
					"id" : "obj-2",
					"maxclass" : "panel",
					"mode" : 0,
					"numinlets" : 1,
					"numoutlets" : 0,
					"patching_rect" : [ 848.5, 507.5, 35.0, 38.0 ],
					"presentation" : 1,
					"presentation_rect" : [ 0.0, 0.0, 424.0, 221.0 ],
					"proportion" : 0.39,
					"rounded" : 0
				}

			}
, 			{
				"box" : 				{
					"angle" : 270.0,
					"background" : 1,
					"bgcolor" : [ 0.96078431372549, 0.737254901960784, 1.0, 1.0 ],
					"id" : "obj-32",
					"maxclass" : "panel",
					"mode" : 0,
					"numinlets" : 1,
					"numoutlets" : 0,
					"patching_rect" : [ 785.0, 20.0, 170.0, 199.0 ],
					"proportion" : 0.39
				}

			}
, 			{
				"box" : 				{
					"id" : "obj-14",
					"maxclass" : "message",
					"numinlets" : 2,
					"numoutlets" : 1,
					"outlettype" : [ "" ],
					"patching_rect" : [ 224.0, 254.0, 65.0, 23.0 ],
					"text" : "allnotesoff"
				}

			}
, 			{
				"box" : 				{
					"id" : "obj-52",
					"maxclass" : "message",
					"numinlets" : 2,
					"numoutlets" : 1,
					"outlettype" : [ "" ],
					"patching_rect" : [ 1611.400022804737091, 658.699999630451202, 78.0, 23.0 ],
					"text" : "output $1 $2"
				}

			}
 ],
		"lines" : [ 			{
				"patchline" : 				{
					"destination" : [ "obj-50", 0 ],
					"source" : [ "obj-10", 0 ]
				}

			}
, 			{
				"patchline" : 				{
					"destination" : [ "obj-101", 0 ],
					"source" : [ "obj-100", 0 ]
				}

			}
, 			{
				"patchline" : 				{
					"destination" : [ "obj-102", 0 ],
					"source" : [ "obj-101", 0 ]
				}

			}
, 			{
				"patchline" : 				{
					"destination" : [ "obj-88", 2 ],
					"source" : [ "obj-102", 0 ]
				}

			}
, 			{
				"patchline" : 				{
					"destination" : [ "obj-99", 0 ],
					"source" : [ "obj-103", 1 ]
				}

			}
, 			{
				"patchline" : 				{
					"destination" : [ "obj-99", 0 ],
					"source" : [ "obj-103", 0 ]
				}

			}
, 			{
				"patchline" : 				{
					"destination" : [ "obj-106", 0 ],
					"order" : 0,
					"source" : [ "obj-104", 0 ]
				}

			}
, 			{
				"patchline" : 				{
					"destination" : [ "obj-107", 0 ],
					"order" : 1,
					"source" : [ "obj-104", 0 ]
				}

			}
, 			{
				"patchline" : 				{
					"destination" : [ "obj-108", 0 ],
					"order" : 2,
					"source" : [ "obj-104", 0 ]
				}

			}
, 			{
				"patchline" : 				{
					"destination" : [ "obj-104", 0 ],
					"source" : [ "obj-105", 0 ]
				}

			}
, 			{
				"patchline" : 				{
					"destination" : [ "obj-103", 0 ],
					"source" : [ "obj-106", 0 ]
				}

			}
, 			{
				"patchline" : 				{
					"destination" : [ "obj-103", 0 ],
					"source" : [ "obj-107", 0 ]
				}

			}
, 			{
				"patchline" : 				{
					"destination" : [ "obj-103", 0 ],
					"source" : [ "obj-108", 0 ]
				}

			}
, 			{
				"patchline" : 				{
					"destination" : [ "obj-22", 0 ],
					"source" : [ "obj-11", 0 ]
				}

			}
, 			{
				"patchline" : 				{
					"destination" : [ "obj-113", 0 ],
					"source" : [ "obj-111", 1 ]
				}

			}
, 			{
				"patchline" : 				{
					"destination" : [ "obj-27", 0 ],
					"source" : [ "obj-112", 0 ]
				}

			}
, 			{
				"patchline" : 				{
					"destination" : [ "obj-46", 0 ],
					"source" : [ "obj-112", 1 ]
				}

			}
, 			{
				"patchline" : 				{
					"destination" : [ "obj-114", 0 ],
					"source" : [ "obj-113", 0 ]
				}

			}
, 			{
				"patchline" : 				{
					"destination" : [ "obj-46", 0 ],
					"source" : [ "obj-114", 0 ]
				}

			}
, 			{
				"patchline" : 				{
					"destination" : [ "obj-62", 0 ],
					"source" : [ "obj-115", 0 ]
				}

			}
, 			{
				"patchline" : 				{
					"destination" : [ "obj-119", 1 ],
					"source" : [ "obj-118", 0 ]
				}

			}
, 			{
				"patchline" : 				{
					"destination" : [ "obj-121", 0 ],
					"source" : [ "obj-119", 0 ]
				}

			}
, 			{
				"patchline" : 				{
					"destination" : [ "obj-50", 0 ],
					"source" : [ "obj-12", 0 ]
				}

			}
, 			{
				"patchline" : 				{
					"destination" : [ "obj-125", 0 ],
					"order" : 4,
					"source" : [ "obj-122", 0 ]
				}

			}
, 			{
				"patchline" : 				{
					"destination" : [ "obj-126", 0 ],
					"order" : 2,
					"source" : [ "obj-122", 0 ]
				}

			}
, 			{
				"patchline" : 				{
					"destination" : [ "obj-128", 0 ],
					"order" : 1,
					"source" : [ "obj-122", 0 ]
				}

			}
, 			{
				"patchline" : 				{
					"destination" : [ "obj-75", 1 ],
					"order" : 3,
					"source" : [ "obj-122", 0 ]
				}

			}
, 			{
				"patchline" : 				{
					"destination" : [ "obj-78", 1 ],
					"order" : 0,
					"source" : [ "obj-122", 0 ]
				}

			}
, 			{
				"patchline" : 				{
					"destination" : [ "obj-75", 0 ],
					"source" : [ "obj-125", 0 ]
				}

			}
, 			{
				"patchline" : 				{
					"destination" : [ "obj-78", 0 ],
					"source" : [ "obj-128", 0 ]
				}

			}
, 			{
				"patchline" : 				{
					"destination" : [ "obj-126", 1 ],
					"source" : [ "obj-129", 0 ]
				}

			}
, 			{
				"patchline" : 				{
					"destination" : [ "obj-128", 1 ],
					"source" : [ "obj-130", 0 ]
				}

			}
, 			{
				"patchline" : 				{
					"destination" : [ "obj-88", 0 ],
					"source" : [ "obj-14", 0 ]
				}

			}
, 			{
				"patchline" : 				{
					"destination" : [ "obj-162", 0 ],
					"source" : [ "obj-148", 0 ]
				}

			}
, 			{
				"patchline" : 				{
					"destination" : [ "obj-148", 0 ],
					"source" : [ "obj-152", 0 ]
				}

			}
, 			{
				"patchline" : 				{
					"destination" : [ "obj-154", 0 ],
					"order" : 0,
					"source" : [ "obj-153", 0 ]
				}

			}
, 			{
				"patchline" : 				{
					"destination" : [ "obj-157", 0 ],
					"order" : 1,
					"source" : [ "obj-153", 0 ]
				}

			}
, 			{
				"patchline" : 				{
					"destination" : [ "obj-155", 0 ],
					"source" : [ "obj-154", 0 ]
				}

			}
, 			{
				"patchline" : 				{
					"destination" : [ "obj-67", 0 ],
					"source" : [ "obj-155", 0 ]
				}

			}
, 			{
				"patchline" : 				{
					"destination" : [ "obj-152", 0 ],
					"source" : [ "obj-156", 0 ]
				}

			}
, 			{
				"patchline" : 				{
					"destination" : [ "obj-156", 0 ],
					"source" : [ "obj-157", 0 ]
				}

			}
, 			{
				"patchline" : 				{
					"destination" : [ "obj-148", 0 ],
					"source" : [ "obj-158", 0 ]
				}

			}
, 			{
				"patchline" : 				{
					"destination" : [ "obj-158", 0 ],
					"source" : [ "obj-159", 0 ]
				}

			}
, 			{
				"patchline" : 				{
					"destination" : [ "obj-10", 0 ],
					"order" : 2,
					"source" : [ "obj-16", 0 ]
				}

			}
, 			{
				"patchline" : 				{
					"destination" : [ "obj-12", 0 ],
					"order" : 0,
					"source" : [ "obj-16", 0 ]
				}

			}
, 			{
				"patchline" : 				{
					"destination" : [ "obj-47", 0 ],
					"order" : 1,
					"source" : [ "obj-16", 0 ]
				}

			}
, 			{
				"patchline" : 				{
					"destination" : [ "obj-167", 0 ],
					"source" : [ "obj-162", 0 ]
				}

			}
, 			{
				"patchline" : 				{
					"destination" : [ "obj-166", 0 ],
					"source" : [ "obj-167", 0 ]
				}

			}
, 			{
				"patchline" : 				{
					"destination" : [ "obj-14", 0 ],
					"source" : [ "obj-19", 0 ]
				}

			}
, 			{
				"patchline" : 				{
					"destination" : [ "obj-67", 0 ],
					"source" : [ "obj-20", 1 ]
				}

			}
, 			{
				"patchline" : 				{
					"destination" : [ "obj-11", 0 ],
					"source" : [ "obj-21", 0 ]
				}

			}
, 			{
				"patchline" : 				{
					"destination" : [ "obj-25", 0 ],
					"source" : [ "obj-22", 0 ]
				}

			}
, 			{
				"patchline" : 				{
					"destination" : [ "obj-99", 0 ],
					"source" : [ "obj-24", 0 ]
				}

			}
, 			{
				"patchline" : 				{
					"destination" : [ "obj-72", 0 ],
					"source" : [ "obj-25", 0 ]
				}

			}
, 			{
				"patchline" : 				{
					"destination" : [ "obj-20", 0 ],
					"source" : [ "obj-26", 0 ]
				}

			}
, 			{
				"patchline" : 				{
					"destination" : [ "obj-111", 0 ],
					"source" : [ "obj-27", 0 ]
				}

			}
, 			{
				"patchline" : 				{
					"destination" : [ "obj-30", 9 ],
					"source" : [ "obj-28", 9 ]
				}

			}
, 			{
				"patchline" : 				{
					"destination" : [ "obj-30", 8 ],
					"source" : [ "obj-28", 8 ]
				}

			}
, 			{
				"patchline" : 				{
					"destination" : [ "obj-30", 7 ],
					"source" : [ "obj-28", 7 ]
				}

			}
, 			{
				"patchline" : 				{
					"destination" : [ "obj-30", 6 ],
					"source" : [ "obj-28", 6 ]
				}

			}
, 			{
				"patchline" : 				{
					"destination" : [ "obj-30", 5 ],
					"source" : [ "obj-28", 5 ]
				}

			}
, 			{
				"patchline" : 				{
					"destination" : [ "obj-30", 4 ],
					"source" : [ "obj-28", 4 ]
				}

			}
, 			{
				"patchline" : 				{
					"destination" : [ "obj-30", 3 ],
					"source" : [ "obj-28", 3 ]
				}

			}
, 			{
				"patchline" : 				{
					"destination" : [ "obj-30", 2 ],
					"source" : [ "obj-28", 2 ]
				}

			}
, 			{
				"patchline" : 				{
					"destination" : [ "obj-30", 1 ],
					"source" : [ "obj-28", 1 ]
				}

			}
, 			{
				"patchline" : 				{
					"destination" : [ "obj-30", 0 ],
					"source" : [ "obj-28", 0 ]
				}

			}
, 			{
				"patchline" : 				{
					"destination" : [ "obj-37", 0 ],
					"source" : [ "obj-29", 0 ]
				}

			}
, 			{
				"patchline" : 				{
					"destination" : [ "obj-7", 0 ],
					"order" : 0,
					"source" : [ "obj-3", 0 ]
				}

			}
, 			{
				"patchline" : 				{
					"destination" : [ "obj-88", 4 ],
					"order" : 1,
					"source" : [ "obj-3", 0 ]
				}

			}
, 			{
				"patchline" : 				{
					"destination" : [ "obj-88", 5 ],
					"source" : [ "obj-30", 0 ]
				}

			}
, 			{
				"patchline" : 				{
					"destination" : [ "obj-25", 0 ],
					"source" : [ "obj-31", 0 ]
				}

			}
, 			{
				"patchline" : 				{
					"destination" : [ "obj-27", 0 ],
					"source" : [ "obj-33", 0 ]
				}

			}
, 			{
				"patchline" : 				{
					"destination" : [ "obj-33", 0 ],
					"source" : [ "obj-36", 0 ]
				}

			}
, 			{
				"patchline" : 				{
					"destination" : [ "obj-112", 0 ],
					"source" : [ "obj-37", 0 ]
				}

			}
, 			{
				"patchline" : 				{
					"destination" : [ "obj-39", 0 ],
					"source" : [ "obj-38", 0 ]
				}

			}
, 			{
				"patchline" : 				{
					"destination" : [ "obj-29", 0 ],
					"source" : [ "obj-39", 0 ]
				}

			}
, 			{
				"patchline" : 				{
					"destination" : [ "obj-158", 0 ],
					"source" : [ "obj-40", 0 ]
				}

			}
, 			{
				"patchline" : 				{
					"destination" : [ "obj-42", 0 ],
					"order" : 0,
					"source" : [ "obj-41", 0 ]
				}

			}
, 			{
				"patchline" : 				{
					"destination" : [ "obj-90", 0 ],
					"order" : 1,
					"source" : [ "obj-41", 0 ]
				}

			}
, 			{
				"patchline" : 				{
					"destination" : [ "obj-88", 0 ],
					"source" : [ "obj-42", 0 ]
				}

			}
, 			{
				"patchline" : 				{
					"destination" : [ "obj-16", 0 ],
					"source" : [ "obj-44", 0 ]
				}

			}
, 			{
				"patchline" : 				{
					"destination" : [ "obj-118", 0 ],
					"order" : 0,
					"source" : [ "obj-45", 6 ]
				}

			}
, 			{
				"patchline" : 				{
					"destination" : [ "obj-119", 0 ],
					"source" : [ "obj-45", 0 ]
				}

			}
, 			{
				"patchline" : 				{
					"destination" : [ "obj-122", 0 ],
					"order" : 1,
					"source" : [ "obj-45", 6 ]
				}

			}
, 			{
				"patchline" : 				{
					"destination" : [ "obj-26", 0 ],
					"source" : [ "obj-46", 1 ]
				}

			}
, 			{
				"patchline" : 				{
					"destination" : [ "obj-50", 0 ],
					"source" : [ "obj-47", 0 ]
				}

			}
, 			{
				"patchline" : 				{
					"destination" : [ "obj-28", 0 ],
					"source" : [ "obj-50", 1 ]
				}

			}
, 			{
				"patchline" : 				{
					"destination" : [ "obj-28", 0 ],
					"source" : [ "obj-50", 0 ]
				}

			}
, 			{
				"patchline" : 				{
					"destination" : [ "obj-40", 0 ],
					"source" : [ "obj-52", 0 ]
				}

			}
, 			{
				"patchline" : 				{
					"destination" : [ "obj-28", 0 ],
					"source" : [ "obj-53", 0 ]
				}

			}
, 			{
				"patchline" : 				{
					"destination" : [ "obj-76", 0 ],
					"source" : [ "obj-62", 0 ]
				}

			}
, 			{
				"patchline" : 				{
					"destination" : [ "obj-96", 0 ],
					"source" : [ "obj-67", 0 ]
				}

			}
, 			{
				"patchline" : 				{
					"destination" : [ "obj-71", 0 ],
					"source" : [ "obj-69", 0 ]
				}

			}
, 			{
				"patchline" : 				{
					"destination" : [ "obj-91", 0 ],
					"source" : [ "obj-7", 0 ]
				}

			}
, 			{
				"patchline" : 				{
					"destination" : [ "obj-69", 0 ],
					"source" : [ "obj-70", 0 ]
				}

			}
, 			{
				"patchline" : 				{
					"destination" : [ "obj-70", 0 ],
					"order" : 0,
					"source" : [ "obj-74", 0 ]
				}

			}
, 			{
				"patchline" : 				{
					"destination" : [ "obj-89", 1 ],
					"order" : 1,
					"source" : [ "obj-74", 0 ]
				}

			}
, 			{
				"patchline" : 				{
					"destination" : [ "obj-52", 0 ],
					"source" : [ "obj-75", 0 ]
				}

			}
, 			{
				"patchline" : 				{
					"destination" : [ "obj-54", 0 ],
					"source" : [ "obj-76", 0 ]
				}

			}
, 			{
				"patchline" : 				{
					"destination" : [ "obj-85", 0 ],
					"source" : [ "obj-78", 0 ]
				}

			}
, 			{
				"patchline" : 				{
					"destination" : [ "obj-148", 1 ],
					"source" : [ "obj-84", 0 ]
				}

			}
, 			{
				"patchline" : 				{
					"destination" : [ "obj-84", 0 ],
					"source" : [ "obj-85", 0 ]
				}

			}
, 			{
				"patchline" : 				{
					"destination" : [ "obj-115", 0 ],
					"source" : [ "obj-88", 0 ]
				}

			}
, 			{
				"patchline" : 				{
					"destination" : [ "obj-153", 0 ],
					"order" : 0,
					"source" : [ "obj-89", 0 ]
				}

			}
, 			{
				"patchline" : 				{
					"destination" : [ "obj-88", 1 ],
					"order" : 1,
					"source" : [ "obj-89", 0 ]
				}

			}
, 			{
				"patchline" : 				{
					"destination" : [ "obj-15", 0 ],
					"source" : [ "obj-90", 0 ]
				}

			}
, 			{
				"patchline" : 				{
					"destination" : [ "obj-18", 0 ],
					"source" : [ "obj-91", 0 ]
				}

			}
, 			{
				"patchline" : 				{
					"destination" : [ "obj-31", 0 ],
					"source" : [ "obj-93", 0 ]
				}

			}
, 			{
				"patchline" : 				{
					"destination" : [ "obj-97", 0 ],
					"source" : [ "obj-94", 0 ]
				}

			}
, 			{
				"patchline" : 				{
					"destination" : [ "obj-89", 0 ],
					"source" : [ "obj-95", 0 ]
				}

			}
, 			{
				"patchline" : 				{
					"destination" : [ "obj-125", 1 ],
					"order" : 2,
					"source" : [ "obj-96", 1 ]
				}

			}
, 			{
				"patchline" : 				{
					"destination" : [ "obj-129", 0 ],
					"order" : 1,
					"source" : [ "obj-96", 1 ]
				}

			}
, 			{
				"patchline" : 				{
					"destination" : [ "obj-130", 0 ],
					"order" : 0,
					"source" : [ "obj-96", 1 ]
				}

			}
, 			{
				"patchline" : 				{
					"destination" : [ "obj-45", 0 ],
					"source" : [ "obj-96", 0 ]
				}

			}
, 			{
				"patchline" : 				{
					"destination" : [ "obj-95", 0 ],
					"source" : [ "obj-97", 0 ]
				}

			}
, 			{
				"patchline" : 				{
					"destination" : [ "obj-88", 3 ],
					"source" : [ "obj-98", 0 ]
				}

			}
, 			{
				"patchline" : 				{
					"destination" : [ "obj-98", 9 ],
					"source" : [ "obj-99", 9 ]
				}

			}
, 			{
				"patchline" : 				{
					"destination" : [ "obj-98", 8 ],
					"source" : [ "obj-99", 8 ]
				}

			}
, 			{
				"patchline" : 				{
					"destination" : [ "obj-98", 7 ],
					"source" : [ "obj-99", 7 ]
				}

			}
, 			{
				"patchline" : 				{
					"destination" : [ "obj-98", 6 ],
					"source" : [ "obj-99", 6 ]
				}

			}
, 			{
				"patchline" : 				{
					"destination" : [ "obj-98", 5 ],
					"source" : [ "obj-99", 5 ]
				}

			}
, 			{
				"patchline" : 				{
					"destination" : [ "obj-98", 4 ],
					"source" : [ "obj-99", 4 ]
				}

			}
, 			{
				"patchline" : 				{
					"destination" : [ "obj-98", 3 ],
					"source" : [ "obj-99", 3 ]
				}

			}
, 			{
				"patchline" : 				{
					"destination" : [ "obj-98", 2 ],
					"source" : [ "obj-99", 2 ]
				}

			}
, 			{
				"patchline" : 				{
					"destination" : [ "obj-98", 1 ],
					"source" : [ "obj-99", 1 ]
				}

			}
, 			{
				"patchline" : 				{
					"destination" : [ "obj-98", 0 ],
					"source" : [ "obj-99", 0 ]
				}

			}
 ],
		"styles" : [ 			{
				"name" : "Minimal",
				"default" : 				{
					"accentcolor" : [ 0.0, 0.0, 0.0, 1.0 ],
					"bgcolor" : [ 0.999999, 0.999974, 0.999991, 1.0 ],
					"bgfillcolor" : 					{
						"angle" : 270.0,
						"autogradient" : 0.0,
						"color" : [ 0.65098, 0.666667, 0.662745, 1.0 ],
						"color1" : [ 0.65098, 0.666667, 0.662745, 1.0 ],
						"color2" : [ 0.290196, 0.309804, 0.301961, 1.0 ],
						"proportion" : 0.39,
						"type" : "color"
					}
,
					"color" : [ 0.0, 0.0, 0.0, 1.0 ],
					"editing_bgcolor" : [ 0.956862745098039, 0.956862745098039, 0.956862745098039, 1.0 ],
					"elementcolor" : [ 0.647058823529412, 0.647058823529412, 0.647058823529412, 1.0 ],
					"fontface" : [ 0 ],
					"fontname" : [ "Futura Medium" ],
					"fontsize" : [ 10.0 ],
					"selectioncolor" : [ 0.0, 0.0, 0.0, 1.0 ],
					"textcolor_inverse" : [ 0.0, 0.0, 0.0, 1.0 ]
				}
,
				"parentstyle" : "",
				"multi" : 0
			}
, 			{
				"name" : "Minimal-1",
				"default" : 				{
					"accentcolor" : [ 0.0, 0.0, 0.0, 1.0 ],
					"bgcolor" : [ 0.999999, 0.999974, 0.999991, 1.0 ],
					"bgfillcolor" : 					{
						"angle" : 270.0,
						"autogradient" : 0.0,
						"color" : [ 0.65098, 0.666667, 0.662745, 1.0 ],
						"color1" : [ 0.65098, 0.666667, 0.662745, 1.0 ],
						"color2" : [ 0.290196, 0.309804, 0.301961, 1.0 ],
						"proportion" : 0.39,
						"type" : "color"
					}
,
					"color" : [ 0.0, 0.0, 0.0, 1.0 ],
					"editing_bgcolor" : [ 0.956862745098039, 0.956862745098039, 0.956862745098039, 1.0 ],
					"elementcolor" : [ 0.741176470588235, 0.741176470588235, 0.741176470588235, 1.0 ],
					"fontface" : [ 0 ],
					"fontname" : [ "Lato" ],
					"fontsize" : [ 12.0 ],
					"selectioncolor" : [ 0.0, 0.0, 0.0, 1.0 ],
					"textcolor_inverse" : [ 0.0, 0.0, 0.0, 1.0 ]
				}
,
				"parentstyle" : "",
				"multi" : 0
			}
 ]
	}

}
